<?xml version="1.0" encoding="UTF-8"?><svg id="Layer_2" xmlns="http://www.w3.org/2000/svg" viewBox="0 0 607 607"><defs><style>.cls-1{fill:#fff;}.cls-2{fill:none;stroke:#fff;stroke-miterlimit:10;stroke-width:15px;}</style></defs><g id="Layer_2-2"><g id="jack"><path class="cls-1" d="M71.72,388.2h7.75c1.22,0,2.06,.54,2.53,1.61,.14,.4,.22,.77,.22,1.13v2.04c0,1.65,.79,2.76,2.37,3.34,.5,.18,1,.27,1.51,.27,1.69,0,2.85-.66,3.5-1.99,.22-.5,.32-1.04,.32-1.61v-27.93c0-1.22,.54-2.06,1.61-2.53,.39-.14,.77-.22,1.13-.22h7.75c1.22,0,2.06,.54,2.53,1.61,.14,.4,.22,.77,.22,1.13v25.73c0,4.84-2.15,8.54-6.46,11.09-3.05,1.76-6.58,2.64-10.6,2.64-5.27,0-9.54-1.29-12.81-3.87-2.83-2.26-4.27-5.17-4.31-8.72v-.97c0-1.22,.54-2.06,1.61-2.53,.36-.14,.73-.21,1.13-.21Z"/><path class="cls-1" d="M128.4,398.05h-8.23l-.7,3.18c-.4,1.58-1.36,2.48-2.91,2.69-.22,.04-.41,.05-.59,.05h-8.02c-.75,0-1.35-.39-1.78-1.18-.18-.36-.27-.7-.27-1.02,0-.25,.02-.43,.05-.54l10.93-36.17c.39-1.58,1.36-2.48,2.91-2.69,.22-.04,.41-.05,.59-.05h7.75c1.72,0,2.87,.83,3.44,2.48,0,.11,.02,.2,.05,.27l10.93,36.17c.07,.21,.11,.39,.11,.54,0,.9-.45,1.56-1.35,1.99-.29,.14-.54,.22-.75,.22h-7.97c-1.72,0-2.87-.79-3.44-2.37-.04-.14-.07-.27-.11-.38l-.65-3.18Zm-1.72-7.91l-2.42-10.93-2.37,10.93h4.79Z"/><path class="cls-1" d="M144.7,390.78v-15.28c0-4.84,2.15-8.54,6.46-11.09,3.05-1.76,6.58-2.64,10.6-2.64,5.24,0,9.49,1.27,12.76,3.82,2.87,2.3,4.32,5.22,4.36,8.77v1.29c0,1.22-.57,2.06-1.72,2.53-.36,.14-.72,.21-1.08,.21h-7.7c-1.22,0-2.06-.54-2.53-1.61-.14-.39-.22-.77-.22-1.13v-2.37c0-1.65-.79-2.76-2.37-3.34-.5-.18-1.01-.27-1.51-.27-1.69,0-2.85,.65-3.5,1.94-.25,.54-.38,1.09-.38,1.67v19.7c0,1.65,.79,2.76,2.37,3.34,.5,.18,1,.27,1.51,.27,1.69,0,2.85-.65,3.5-1.94,.25-.54,.38-1.09,.38-1.67v-2.37c0-1.22,.54-2.06,1.61-2.53,.36-.14,.73-.21,1.13-.21h7.7c1.26,0,2.12,.56,2.58,1.67,.14,.36,.22,.72,.22,1.08v1.29c0,4.45-2.19,7.84-6.57,10.17-3.05,1.61-6.57,2.42-10.55,2.42-5.09,0-9.28-1.35-12.54-4.04-2.98-2.51-4.49-5.74-4.52-9.69Z"/><path class="cls-1" d="M218.65,363.6c-.04,.47-.18,.95-.43,1.45l-11.68,16.74,12.22,19.43c.29,.54,.43,1,.43,1.4-.18,.79-.7,1.24-1.56,1.35h-8.23c-1.94-.03-3.41-.95-4.41-2.74l-9.2-15.23v15.23c0,1.22-.54,2.06-1.61,2.53-.36,.14-.74,.22-1.13,.22h-7.75c-1.22,0-2.06-.54-2.53-1.61-.14-.39-.22-.77-.22-1.13v-36.17c0-1.22,.54-2.06,1.62-2.53,.39-.14,.77-.22,1.13-.22h7.75c1.22,0,2.06,.54,2.53,1.61,.14,.4,.22,.77,.22,1.13v13.08h.05l9.15-13.08c1.08-1.79,2.55-2.71,4.41-2.74h7.7c1,.07,1.52,.5,1.56,1.29Z"/></g><g id="habboosh"><path class="cls-1" d="M243.14,362.31h7.75c1.22,0,2.06,.54,2.53,1.61,.14,.4,.22,.77,.22,1.13v15.18h7.7v-15.18c0-1.22,.54-2.06,1.61-2.53,.39-.14,.77-.22,1.13-.22h7.75c1.22,0,2.06,.54,2.53,1.61,.14,.4,.22,.77,.22,1.13v36.17c0,1.22-.54,2.06-1.61,2.53-.36,.14-.74,.22-1.13,.22h-7.75c-1.22,0-2.06-.54-2.53-1.61-.14-.39-.22-.77-.22-1.13v-13.08h-7.7v13.08c0,1.22-.54,2.06-1.61,2.53-.36,.14-.74,.22-1.13,.22h-7.75c-1.22,0-2.06-.54-2.53-1.61-.14-.39-.22-.77-.22-1.13v-36.17c0-1.22,.54-2.06,1.62-2.53,.39-.14,.77-.22,1.13-.22Z"/><path class="cls-1" d="M299.87,398.05h-8.23l-.7,3.18c-.4,1.58-1.36,2.48-2.91,2.69-.22,.04-.41,.05-.59,.05h-8.02c-.75,0-1.35-.39-1.78-1.18-.18-.36-.27-.7-.27-1.02,0-.25,.02-.43,.05-.54l10.93-36.17c.39-1.58,1.36-2.48,2.91-2.69,.22-.04,.41-.05,.59-.05h7.75c1.72,0,2.87,.83,3.44,2.48,0,.11,.02,.2,.05,.27l10.93,36.17c.07,.21,.11,.39,.11,.54,0,.9-.45,1.56-1.35,1.99-.29,.14-.54,.22-.75,.22h-7.97c-1.72,0-2.87-.79-3.44-2.37-.04-.14-.07-.27-.11-.38l-.65-3.18Zm-1.72-7.91l-2.42-10.93-2.37,10.93h4.79Z"/><path class="cls-1" d="M350.03,373.56c-.04,3.52-1.85,6.33-5.44,8.45,3.98,1.94,6.15,4.72,6.51,8.34,.04,.36,.05,.7,.05,1.02,0,4.74-2.15,8.24-6.46,10.49-2.69,1.4-5.87,2.1-9.53,2.1h-15.45c-1.22,0-2.06-.54-2.53-1.61-.14-.39-.22-.77-.22-1.13v-36.17c0-1.22,.54-2.06,1.62-2.53,.39-.14,.77-.22,1.13-.22h14.37c5.63,0,9.92,1.36,12.86,4.09,2.04,1.94,3.07,4.33,3.07,7.16Zm-19.81,4.95h2.74c1.65,0,2.8-.63,3.44-1.88,.29-.54,.43-1.11,.43-1.72v-1.08c0-1.72-.83-2.85-2.48-3.39-.43-.14-.9-.22-1.4-.22h-2.74v8.29Zm0,8.13v9.42h3.88c1.65,0,2.8-.65,3.44-1.94,.25-.54,.38-1.09,.38-1.67v-2.21c0-1.76-.83-2.89-2.48-3.39-.43-.14-.88-.22-1.35-.22h-3.88Z"/><path class="cls-1" d="M387.81,373.56c-.04,3.52-1.85,6.33-5.44,8.45,3.98,1.94,6.15,4.72,6.51,8.34,.04,.36,.05,.7,.05,1.02,0,4.74-2.15,8.24-6.46,10.49-2.69,1.4-5.87,2.1-9.53,2.1h-15.45c-1.22,0-2.06-.54-2.53-1.61-.14-.39-.22-.77-.22-1.13v-36.17c0-1.22,.54-2.06,1.62-2.53,.39-.14,.77-.22,1.13-.22h14.37c5.63,0,9.92,1.36,12.86,4.09,2.04,1.94,3.07,4.33,3.07,7.16Zm-19.81,4.95h2.74c1.65,0,2.8-.63,3.44-1.88,.29-.54,.43-1.11,.43-1.72v-1.08c0-1.72-.83-2.85-2.48-3.39-.43-.14-.9-.22-1.4-.22h-2.74v8.29Zm0,8.13v9.42h3.88c1.65,0,2.8-.65,3.44-1.94,.25-.54,.38-1.09,.38-1.67v-2.21c0-1.76-.83-2.89-2.48-3.39-.43-.14-.88-.22-1.35-.22h-3.88Z"/><path class="cls-1" d="M391.74,390.78v-15.28c0-4.84,2.15-8.54,6.46-11.09,3.05-1.76,6.58-2.64,10.6-2.64,5.09,0,9.27,1.33,12.54,3.98,3.01,2.55,4.54,5.79,4.57,9.74v15.28c0,4.84-2.19,8.54-6.57,11.09-3.05,1.76-6.57,2.64-10.55,2.64-5.09,0-9.28-1.35-12.54-4.04-2.98-2.51-4.49-5.74-4.52-9.69Zm20.94,2.21v-19.7c0-1.65-.79-2.76-2.37-3.34-.5-.18-1.01-.27-1.51-.27-1.69,0-2.85,.65-3.5,1.94-.25,.54-.38,1.09-.38,1.67v19.7c0,1.65,.79,2.76,2.37,3.34,.5,.18,1,.27,1.51,.27,1.69,0,2.85-.65,3.5-1.94,.25-.54,.38-1.09,.38-1.67Z"/><path class="cls-1" d="M429.2,390.78v-15.28c0-4.84,2.15-8.54,6.46-11.09,3.05-1.76,6.58-2.64,10.6-2.64,5.09,0,9.27,1.33,12.54,3.98,3.01,2.55,4.54,5.79,4.57,9.74v15.28c0,4.84-2.19,8.54-6.57,11.09-3.05,1.76-6.57,2.64-10.55,2.64-5.09,0-9.28-1.35-12.54-4.04-2.98-2.51-4.49-5.74-4.52-9.69Zm20.94,2.21v-19.7c0-1.65-.79-2.76-2.37-3.34-.5-.18-1.01-.27-1.51-.27-1.69,0-2.85,.65-3.5,1.94-.25,.54-.38,1.09-.38,1.67v19.7c0,1.65,.79,2.76,2.37,3.34,.5,.18,1,.27,1.51,.27,1.69,0,2.85-.65,3.5-1.94,.25-.54,.38-1.09,.38-1.67Z"/><path class="cls-1" d="M487.11,393.42c0-1.58-1.43-3.17-4.31-4.79-.72-.43-1.92-1.08-3.61-1.94-4.3-2.15-7.27-3.98-8.88-5.49-2.37-2.22-3.57-4.72-3.61-7.48,0-3.73,1.86-6.75,5.6-9.04,3.12-1.94,6.71-2.91,10.76-2.91,5.1,0,9.2,1.22,12.33,3.66,2.66,2.08,4,4.7,4.04,7.86v.16c0,1.22-.54,2.06-1.62,2.53-.4,.14-.77,.22-1.13,.22h-7.75c-1.22,0-2.06-.54-2.53-1.61-.14-.39-.22-.77-.22-1.13v-1.29c0-1.22-.7-2.01-2.1-2.37-.36-.07-.7-.11-1.02-.11-1.22,0-2.13,.5-2.74,1.51-.25,.43-.38,.86-.38,1.29,0,1.4,1.36,2.85,4.09,4.36,.68,.39,1.79,.99,3.34,1.78,4.38,2.15,7.43,4.02,9.15,5.6,2.48,2.33,3.73,4.99,3.77,7.97,0,3.91-1.96,7.05-5.87,9.42-3.23,1.94-6.98,2.91-11.25,2.91-5.27,0-9.55-1.29-12.81-3.87-2.87-2.3-4.32-5.2-4.36-8.72v-.16c0-1.22,.54-2.06,1.61-2.53,.39-.18,.79-.27,1.18-.27h7.7c1.22,0,2.06,.57,2.53,1.72,.14,.36,.21,.72,.21,1.08v1.24c0,1.72,.83,2.85,2.48,3.39,.5,.14,.99,.22,1.45,.22,1.61,0,2.78-.56,3.5-1.67,.29-.5,.43-1,.43-1.51Z"/><path class="cls-1" d="M506.59,362.31h7.75c1.22,0,2.06,.54,2.53,1.61,.14,.4,.22,.77,.22,1.13v15.18h7.7v-15.18c0-1.22,.54-2.06,1.62-2.53,.39-.14,.77-.22,1.13-.22h7.75c1.22,0,2.06,.54,2.53,1.61,.14,.4,.22,.77,.22,1.13v36.17c0,1.22-.54,2.06-1.61,2.53-.36,.14-.74,.22-1.13,.22h-7.75c-1.22,0-2.06-.54-2.53-1.61-.14-.39-.22-.77-.22-1.13v-13.08h-7.7v13.08c0,1.22-.54,2.06-1.61,2.53-.36,.14-.74,.22-1.13,.22h-7.75c-1.22,0-2.06-.54-2.53-1.61-.14-.39-.22-.77-.22-1.13v-36.17c0-1.22,.54-2.06,1.61-2.53,.39-.14,.77-.22,1.13-.22Z"/></g><g id="creatives"><path class="cls-1" d="M151.46,466.69v-15.28c0-4.84,2.15-8.54,6.46-11.09,3.05-1.76,6.58-2.64,10.6-2.64,5.24,0,9.49,1.27,12.76,3.82,2.87,2.3,4.32,5.22,4.36,8.77v1.29c0,1.22-.57,2.06-1.72,2.53-.36,.14-.72,.21-1.08,.21h-7.7c-1.22,0-2.06-.54-2.53-1.61-.14-.39-.22-.77-.22-1.13v-2.37c0-1.65-.79-2.76-2.37-3.34-.5-.18-1-.27-1.51-.27-1.69,0-2.85,.65-3.5,1.94-.25,.54-.38,1.09-.38,1.67v19.7c0,1.65,.79,2.76,2.37,3.34,.5,.18,1,.27,1.51,.27,1.69,0,2.85-.65,3.5-1.94,.25-.54,.38-1.09,.38-1.67v-2.37c0-1.22,.54-2.06,1.61-2.53,.36-.14,.74-.21,1.13-.21h7.7c1.26,0,2.12,.56,2.58,1.67,.14,.36,.21,.72,.21,1.08v1.29c0,4.45-2.19,7.84-6.57,10.17-3.05,1.61-6.57,2.42-10.55,2.42-5.1,0-9.27-1.35-12.54-4.04-2.98-2.51-4.49-5.74-4.52-9.69Z"/><path class="cls-1" d="M225.3,478.43c-.18,.86-.72,1.35-1.61,1.45h-8.29c-1.54,0-2.85-.72-3.93-2.15-.07-.07-.21-.27-.43-.59l-6.62-11.46h-1.88v11.46c0,1.22-.54,2.06-1.61,2.53-.36,.14-.74,.22-1.13,.22h-7.75c-1.22,0-2.06-.54-2.53-1.61-.14-.39-.22-.77-.22-1.13v-36.17c0-1.22,.54-2.06,1.61-2.53,.39-.14,.77-.22,1.13-.22h14.37c5.09,0,9.27,1.35,12.54,4.04,2.98,2.51,4.49,5.74,4.52,9.69,0,4.81-2.12,8.47-6.35,10.98-.25,.14-.5,.29-.75,.43l8.45,13.78c.32,.43,.48,.86,.48,1.29Zm-22.76-20.72h3.87c1.76,0,2.92-.68,3.5-2.04,.21-.47,.32-.97,.32-1.51v-4.41c0-1.69-.79-2.82-2.37-3.39-.47-.14-.95-.22-1.45-.22h-3.87v11.57Z"/><path class="cls-1" d="M241.5,464.06v7.91h15.93c1.22,0,2.06,.54,2.53,1.61,.14,.39,.21,.77,.21,1.13v2.42c0,1.22-.54,2.06-1.61,2.53-.36,.14-.74,.22-1.13,.22h-26.43c-1.22,0-2.06-.54-2.53-1.61-.14-.39-.22-.77-.22-1.13v-36.17c0-1.22,.54-2.06,1.61-2.53,.39-.14,.77-.22,1.13-.22h25.89c1.22,0,2.06,.54,2.53,1.61,.14,.4,.22,.77,.22,1.13v2.42c0,1.22-.54,2.06-1.61,2.53-.4,.14-.77,.21-1.13,.21h-15.39v10.01h13.13c1.22,0,2.06,.54,2.53,1.61,.14,.4,.21,.77,.21,1.13v2.42c0,1.22-.54,2.06-1.61,2.53-.36,.14-.74,.21-1.13,.21h-13.13Z"/><path class="cls-1" d="M284.39,473.96h-8.24l-.7,3.18c-.4,1.58-1.36,2.48-2.91,2.69-.22,.04-.41,.05-.59,.05h-8.02c-.75,0-1.35-.39-1.78-1.18-.18-.36-.27-.7-.27-1.02,0-.25,.02-.43,.05-.54l10.93-36.17c.4-1.58,1.36-2.48,2.91-2.69,.21-.04,.41-.05,.59-.05h7.75c1.72,0,2.87,.83,3.44,2.48,0,.11,.02,.2,.05,.27l10.93,36.17c.07,.21,.11,.39,.11,.54,0,.9-.45,1.56-1.35,1.99-.29,.14-.54,.22-.75,.22h-7.97c-1.72,0-2.87-.79-3.44-2.37-.04-.14-.07-.27-.11-.38l-.65-3.18Zm-1.72-7.91l-2.42-10.93-2.37,10.93h4.79Z"/><path class="cls-1" d="M317.12,446.13v31c0,1.22-.58,2.06-1.72,2.53-.36,.14-.72,.22-1.08,.22h-7.7c-1.22,0-2.06-.54-2.53-1.61-.14-.39-.22-.77-.22-1.13v-31h-7.43c-1.26,0-2.12-.56-2.58-1.67-.14-.36-.21-.72-.21-1.08v-2.42c0-1.22,.57-2.06,1.72-2.53,.36-.14,.72-.22,1.08-.22h28.09c1.22,0,2.06,.54,2.53,1.61,.14,.4,.22,.77,.22,1.13v2.42c0,1.22-.54,2.06-1.61,2.53-.4,.14-.77,.21-1.13,.21h-7.43Z"/><path class="cls-1" d="M333.26,438.22h7.75c1.22,0,2.06,.54,2.53,1.61,.14,.4,.22,.77,.22,1.13v36.17c0,1.22-.54,2.06-1.61,2.53-.36,.14-.74,.22-1.13,.22h-7.75c-1.22,0-2.06-.54-2.53-1.61-.14-.39-.22-.77-.22-1.13v-36.17c0-1.22,.54-2.06,1.61-2.53,.39-.14,.77-.22,1.13-.22Z"/><path class="cls-1" d="M369.16,479.88h-7.7c-1.72,0-2.87-.79-3.44-2.37-.04-.14-.07-.27-.11-.38l-10.93-36.17c-.04-.14-.05-.32-.05-.54,0-.9,.43-1.56,1.29-1.99,.29-.14,.54-.22,.75-.22h8.02c1.72,0,2.87,.83,3.44,2.48,0,.11,.02,.2,.05,.27l4.79,22.01,4.79-22.01c.39-1.51,1.33-2.4,2.8-2.69,.25-.04,.5-.05,.75-.05h7.97c.79,0,1.4,.4,1.83,1.18,.18,.36,.27,.7,.27,1.02,0,.18-.04,.36-.11,.54l-10.87,36.17c-.39,1.51-1.33,2.4-2.8,2.69-.25,.04-.5,.05-.75,.05Z"/><path class="cls-1" d="M400.16,464.06v7.91h15.93c1.22,0,2.06,.54,2.53,1.61,.14,.39,.21,.77,.21,1.13v2.42c0,1.22-.54,2.06-1.61,2.53-.36,.14-.74,.22-1.13,.22h-26.43c-1.22,0-2.06-.54-2.53-1.61-.14-.39-.22-.77-.22-1.13v-36.17c0-1.22,.54-2.06,1.61-2.53,.39-.14,.77-.22,1.13-.22h25.89c1.22,0,2.06,.54,2.53,1.61,.14,.4,.22,.77,.22,1.13v2.42c0,1.22-.54,2.06-1.61,2.53-.4,.14-.77,.21-1.13,.21h-15.39v10.01h13.13c1.22,0,2.06,.54,2.53,1.61,.14,.4,.21,.77,.21,1.13v2.42c0,1.22-.54,2.06-1.61,2.53-.36,.14-.74,.21-1.13,.21h-13.13Z"/><path class="cls-1" d="M442.36,469.33c0-1.58-1.43-3.17-4.31-4.79-.72-.43-1.92-1.08-3.61-1.94-4.31-2.15-7.27-3.98-8.88-5.49-2.37-2.22-3.57-4.72-3.61-7.48,0-3.73,1.87-6.75,5.6-9.04,3.12-1.94,6.71-2.91,10.77-2.91,5.09,0,9.2,1.22,12.32,3.66,2.66,2.08,4,4.7,4.04,7.86v.16c0,1.22-.54,2.06-1.61,2.53-.4,.14-.77,.22-1.13,.22h-7.75c-1.22,0-2.06-.54-2.53-1.61-.14-.39-.22-.77-.22-1.13v-1.29c0-1.22-.7-2.01-2.1-2.37-.36-.07-.7-.11-1.02-.11-1.22,0-2.14,.5-2.75,1.51-.25,.43-.38,.86-.38,1.29,0,1.4,1.36,2.85,4.09,4.36,.68,.39,1.79,.99,3.34,1.78,4.38,2.15,7.43,4.02,9.15,5.6,2.48,2.33,3.73,4.99,3.77,7.97,0,3.91-1.96,7.05-5.87,9.42-3.23,1.94-6.98,2.91-11.25,2.91-5.27,0-9.54-1.29-12.81-3.87-2.87-2.3-4.33-5.2-4.36-8.72v-.16c0-1.22,.54-2.06,1.61-2.53,.39-.18,.79-.27,1.18-.27h7.7c1.22,0,2.06,.57,2.53,1.72,.14,.36,.21,.72,.21,1.08v1.24c0,1.72,.83,2.85,2.48,3.39,.5,.14,.99,.22,1.45,.22,1.61,0,2.78-.56,3.5-1.67,.29-.5,.43-1,.43-1.51Z"/></g><g id="logo"><rect class="cls-1" x="293.22" y="139.4" width="28.82" height="61.83"/><rect class="cls-1" x="293.22" y="235.09" width="28.82" height="50.88"/><path class="cls-1" d="M445.51,183.53c2.1,4.84,5.89,7.27,11.38,7.27h34.64c1.61,0,3.23-.32,4.84-.97,5.17-2.1,7.75-5.89,7.75-11.38v-5.81c-.16-15.99-6.7-29.15-19.62-39.48-14.7-11.47-33.83-17.2-57.41-17.2-18.09,0-34,3.96-47.72,11.87-2.94,1.74-5.58,3.65-8.05,5.64,.19,.97,.3,1.91,.3,2.83v154.58c14.55,11.6,33.04,17.41,55.47,17.41,17.92,0,33.75-3.63,47.48-10.9,19.7-10.5,29.55-25.76,29.55-45.78v-5.81c0-1.61-.33-3.23-.97-4.84-2.1-5.01-5.98-7.51-11.63-7.51h-34.64c-1.78,0-3.48,.32-5.09,.97-4.84,2.1-7.27,5.89-7.27,11.38v10.66c0,2.58-.57,5.09-1.7,7.51-2.91,5.81-8.16,8.72-15.74,8.72-2.26,0-4.52-.4-6.78-1.21-7.11-2.58-10.66-7.59-10.66-15.02v-88.66c0-2.58,.57-5.09,1.7-7.51,2.91-5.81,8.15-8.72,15.74-8.72,2.26,0,4.52,.4,6.78,1.21,7.11,2.58,10.66,7.59,10.66,15.02v10.66c0,1.61,.32,3.31,.97,5.09Z"/><path class="cls-1" d="M243.64,291.05V136.29c0-2.15,.42-3.96,1.11-5.56h-34.92c-1.62,0-3.32,.32-5.11,.97-4.86,2.11-7.29,5.92-7.29,11.43v126.17c0,2.59-.49,5.02-1.46,7.29-2.92,6-8.18,8.99-15.8,8.99-2.27,0-4.54-.41-6.81-1.22-7.13-2.59-10.7-7.62-10.7-15.07v-9.24c0-1.62-.33-3.32-.97-5.1-2.11-4.86-5.92-7.29-11.43-7.29h-35.01c-1.79,0-3.49,.32-5.11,.97-4.86,2.11-7.29,5.92-7.29,11.43v4.38c.16,16.04,6.64,29.17,19.45,39.38,14.74,11.67,34.03,17.5,57.86,17.5,18.15,0,34.11-3.97,47.89-11.91,6.6-3.9,12.05-8.42,16.38-13.53-.54-1.69-.8-3.29-.8-4.83Z"/></g><circle class="cls-2" cx="303.5" cy="303.5" r="296"/></g></svg>