<?xml version="1.0" encoding="UTF-8"?><svg id="Layer_2" xmlns="http://www.w3.org/2000/svg" viewBox="0 0 773.31 399.08"><defs><style>.cls-1{fill:#fff;}</style></defs><g id="Layer_1-2"><g id="company"><path class="cls-1" d="M2.67,383.22h7.54c1.19,0,2.01,.52,2.46,1.57,.14,.38,.21,.75,.21,1.1v1.99c0,1.6,.77,2.69,2.3,3.25,.49,.17,.98,.26,1.47,.26,1.64,0,2.77-.64,3.4-1.94,.21-.49,.31-1.01,.31-1.57v-27.16c0-1.19,.52-2,1.57-2.46,.38-.14,.75-.21,1.1-.21h7.54c1.19,0,2.01,.52,2.46,1.57,.14,.38,.21,.75,.21,1.1v25.01c0,4.71-2.09,8.3-6.28,10.78-2.97,1.71-6.4,2.56-10.31,2.56-5.13,0-9.28-1.26-12.45-3.77-2.76-2.2-4.15-5.02-4.19-8.48v-.94c0-1.19,.52-2.01,1.57-2.46,.35-.14,.71-.21,1.1-.21Z"/><path class="cls-1" d="M57.77,392.8h-8.01l-.68,3.09c-.38,1.53-1.33,2.41-2.83,2.62-.21,.04-.4,.05-.58,.05h-7.8c-.73,0-1.31-.38-1.73-1.15-.18-.35-.26-.68-.26-.99,0-.24,.02-.42,.05-.52l10.62-35.17c.38-1.53,1.33-2.41,2.83-2.62,.21-.04,.4-.05,.58-.05h7.54c1.67,0,2.79,.8,3.35,2.41,0,.11,.02,.19,.05,.26l10.62,35.17c.07,.21,.1,.38,.1,.52,0,.87-.44,1.52-1.31,1.94-.28,.14-.52,.21-.73,.21h-7.74c-1.67,0-2.79-.77-3.35-2.3-.04-.14-.07-.26-.1-.37l-.63-3.09Zm-1.67-7.69l-2.35-10.62-2.3,10.62h4.66Z"/><path class="cls-1" d="M73.63,385.73v-14.86c0-4.71,2.09-8.3,6.28-10.78,2.96-1.71,6.4-2.56,10.31-2.56,5.09,0,9.23,1.24,12.4,3.72,2.79,2.23,4.2,5.08,4.24,8.53v1.26c0,1.19-.56,2.01-1.67,2.46-.35,.14-.7,.21-1.05,.21h-7.48c-1.19,0-2.01-.52-2.46-1.57-.14-.38-.21-.75-.21-1.1v-2.3c0-1.6-.77-2.69-2.3-3.25-.49-.17-.98-.26-1.47-.26-1.64,0-2.77,.63-3.4,1.88-.24,.52-.37,1.06-.37,1.62v19.15c0,1.6,.77,2.69,2.3,3.25,.49,.17,.98,.26,1.46,.26,1.64,0,2.77-.63,3.4-1.88,.24-.52,.37-1.06,.37-1.62v-2.3c0-1.19,.52-2,1.57-2.46,.35-.14,.71-.21,1.1-.21h7.48c1.22,0,2.06,.54,2.51,1.62,.14,.35,.21,.7,.21,1.05v1.26c0,4.33-2.13,7.62-6.38,9.89-2.97,1.57-6.38,2.35-10.26,2.35-4.95,0-9.02-1.31-12.19-3.92-2.9-2.44-4.36-5.58-4.4-9.42Z"/><path class="cls-1" d="M145.53,359.31c-.03,.45-.17,.92-.42,1.41l-11.36,16.27,11.88,18.89c.28,.52,.42,.98,.42,1.36-.17,.77-.68,1.2-1.52,1.31h-8.01c-1.88-.03-3.31-.92-4.29-2.67l-8.95-14.81v14.81c0,1.19-.52,2.01-1.57,2.46-.35,.14-.72,.21-1.1,.21h-7.54c-1.19,0-2.01-.52-2.46-1.57-.14-.38-.21-.75-.21-1.1v-35.17c0-1.19,.52-2,1.57-2.46,.38-.14,.75-.21,1.1-.21h7.54c1.19,0,2.01,.52,2.46,1.57,.14,.38,.21,.75,.21,1.1v12.72h.05l8.9-12.72c1.05-1.74,2.48-2.63,4.29-2.67h7.48c.98,.07,1.48,.49,1.52,1.26Z"/><path class="cls-1" d="M169.33,358.05h7.54c1.19,0,2.01,.52,2.46,1.57,.14,.38,.21,.75,.21,1.1v14.76h7.48v-14.76c0-1.19,.52-2,1.57-2.46,.38-.14,.75-.21,1.1-.21h7.54c1.19,0,2.01,.52,2.46,1.57,.14,.38,.21,.75,.21,1.1v35.17c0,1.19-.52,2.01-1.57,2.46-.35,.14-.72,.21-1.1,.21h-7.54c-1.19,0-2.01-.52-2.46-1.57-.14-.38-.21-.75-.21-1.1v-12.72h-7.48v12.72c0,1.19-.52,2.01-1.57,2.46-.35,.14-.72,.21-1.1,.21h-7.54c-1.19,0-2.01-.52-2.46-1.57-.14-.38-.21-.75-.21-1.1v-35.17c0-1.19,.52-2,1.57-2.46,.38-.14,.75-.21,1.1-.21Z"/><path class="cls-1" d="M224.49,392.8h-8.01l-.68,3.09c-.38,1.53-1.33,2.41-2.83,2.62-.21,.04-.4,.05-.58,.05h-7.8c-.73,0-1.31-.38-1.73-1.15-.18-.35-.26-.68-.26-.99,0-.24,.02-.42,.05-.52l10.62-35.17c.38-1.53,1.33-2.41,2.83-2.62,.21-.04,.4-.05,.58-.05h7.54c1.67,0,2.79,.8,3.35,2.41,0,.11,.02,.19,.05,.26l10.62,35.17c.07,.21,.1,.38,.1,.52,0,.87-.44,1.52-1.31,1.94-.28,.14-.52,.21-.73,.21h-7.74c-1.67,0-2.79-.77-3.35-2.3-.04-.14-.07-.26-.1-.37l-.63-3.09Zm-1.67-7.69l-2.35-10.62-2.3,10.62h4.66Z"/><path class="cls-1" d="M273.26,368.99c-.04,3.42-1.8,6.16-5.28,8.22,3.87,1.88,5.98,4.59,6.33,8.11,.03,.35,.05,.68,.05,.99,0,4.6-2.09,8.01-6.28,10.2-2.62,1.36-5.7,2.04-9.26,2.04h-15.02c-1.19,0-2.01-.52-2.46-1.57-.14-.38-.21-.75-.21-1.1v-35.17c0-1.19,.52-2,1.57-2.46,.38-.14,.75-.21,1.1-.21h13.97c5.48,0,9.65,1.33,12.51,3.98,1.99,1.88,2.98,4.21,2.98,6.96Zm-19.26,4.81h2.67c1.6,0,2.72-.61,3.35-1.83,.28-.52,.42-1.08,.42-1.67v-1.05c0-1.67-.8-2.77-2.41-3.3-.42-.14-.87-.21-1.36-.21h-2.67v8.06Zm0,7.9v9.16h3.77c1.6,0,2.72-.63,3.35-1.88,.24-.52,.37-1.06,.37-1.62v-2.15c0-1.71-.8-2.81-2.41-3.3-.42-.14-.86-.21-1.31-.21h-3.77Z"/><path class="cls-1" d="M309.99,368.99c-.04,3.42-1.8,6.16-5.28,8.22,3.87,1.88,5.98,4.59,6.33,8.11,.03,.35,.05,.68,.05,.99,0,4.6-2.09,8.01-6.28,10.2-2.62,1.36-5.7,2.04-9.26,2.04h-15.02c-1.19,0-2.01-.52-2.46-1.57-.14-.38-.21-.75-.21-1.1v-35.17c0-1.19,.52-2,1.57-2.46,.38-.14,.75-.21,1.1-.21h13.97c5.48,0,9.65,1.33,12.51,3.98,1.99,1.88,2.98,4.21,2.98,6.96Zm-19.26,4.81h2.67c1.6,0,2.72-.61,3.35-1.83,.28-.52,.42-1.08,.42-1.67v-1.05c0-1.67-.8-2.77-2.41-3.3-.42-.14-.87-.21-1.36-.21h-2.67v8.06Zm0,7.9v9.16h3.77c1.6,0,2.72-.63,3.35-1.88,.24-.52,.37-1.06,.37-1.62v-2.15c0-1.71-.8-2.81-2.41-3.3-.42-.14-.86-.21-1.31-.21h-3.77Z"/><path class="cls-1" d="M313.81,385.73v-14.86c0-4.71,2.09-8.3,6.28-10.78,2.96-1.71,6.4-2.56,10.31-2.56,4.95,0,9.02,1.29,12.19,3.87,2.93,2.48,4.41,5.63,4.45,9.47v14.86c0,4.71-2.13,8.3-6.38,10.78-2.97,1.71-6.38,2.56-10.26,2.56-4.95,0-9.02-1.31-12.19-3.92-2.9-2.44-4.36-5.58-4.4-9.42Zm20.36,2.15v-19.15c0-1.6-.77-2.69-2.3-3.25-.49-.17-.98-.26-1.47-.26-1.64,0-2.77,.63-3.4,1.88-.24,.52-.37,1.06-.37,1.62v19.15c0,1.6,.77,2.69,2.3,3.25,.49,.17,.98,.26,1.46,.26,1.64,0,2.77-.63,3.4-1.88,.24-.52,.37-1.06,.37-1.62Z"/><path class="cls-1" d="M350.23,385.73v-14.86c0-4.71,2.09-8.3,6.28-10.78,2.96-1.71,6.4-2.56,10.31-2.56,4.95,0,9.02,1.29,12.19,3.87,2.93,2.48,4.41,5.63,4.45,9.47v14.86c0,4.71-2.13,8.3-6.38,10.78-2.97,1.71-6.38,2.56-10.26,2.56-4.95,0-9.02-1.31-12.19-3.92-2.9-2.44-4.36-5.58-4.4-9.42Zm20.36,2.15v-19.15c0-1.6-.77-2.69-2.3-3.25-.49-.17-.98-.26-1.47-.26-1.64,0-2.77,.63-3.4,1.88-.24,.52-.37,1.06-.37,1.62v19.15c0,1.6,.77,2.69,2.3,3.25,.49,.17,.98,.26,1.46,.26,1.64,0,2.77-.63,3.4-1.88,.24-.52,.37-1.06,.37-1.62Z"/><path class="cls-1" d="M406.54,388.3c0-1.53-1.4-3.09-4.19-4.66-.7-.42-1.87-1.05-3.51-1.88-4.19-2.09-7.06-3.87-8.63-5.34-2.3-2.16-3.47-4.59-3.51-7.27,0-3.63,1.81-6.56,5.44-8.79,3.04-1.88,6.52-2.83,10.47-2.83,4.95,0,8.95,1.19,11.98,3.56,2.58,2.02,3.89,4.57,3.93,7.64v.16c0,1.19-.53,2.01-1.57,2.46-.38,.14-.75,.21-1.1,.21h-7.53c-1.19,0-2.01-.52-2.46-1.57-.14-.38-.21-.75-.21-1.1v-1.26c0-1.19-.68-1.95-2.04-2.3-.35-.07-.68-.1-.99-.1-1.19,0-2.08,.49-2.67,1.47-.24,.42-.37,.84-.37,1.26,0,1.36,1.32,2.77,3.98,4.24,.66,.38,1.74,.96,3.24,1.73,4.26,2.09,7.22,3.91,8.9,5.44,2.41,2.27,3.63,4.85,3.66,7.74,0,3.8-1.9,6.85-5.7,9.16-3.14,1.88-6.79,2.83-10.94,2.83-5.13,0-9.28-1.26-12.46-3.77-2.79-2.23-4.2-5.06-4.24-8.48v-.16c0-1.19,.52-2.01,1.57-2.46,.38-.17,.77-.26,1.15-.26h7.48c1.19,0,2.01,.56,2.46,1.67,.14,.35,.21,.7,.21,1.05v1.2c0,1.68,.8,2.77,2.41,3.3,.49,.14,.96,.21,1.41,.21,1.57,0,2.7-.54,3.4-1.62,.28-.49,.42-.98,.42-1.47Z"/><path class="cls-1" d="M425.48,358.05h7.53c1.19,0,2.01,.52,2.46,1.57,.14,.38,.21,.75,.21,1.1v14.76h7.48v-14.76c0-1.19,.52-2,1.57-2.46,.38-.14,.75-.21,1.1-.21h7.53c1.19,0,2.01,.52,2.46,1.57,.14,.38,.21,.75,.21,1.1v35.17c0,1.19-.52,2.01-1.57,2.46-.35,.14-.72,.21-1.1,.21h-7.53c-1.19,0-2.01-.52-2.46-1.57-.14-.38-.21-.75-.21-1.1v-12.72h-7.48v12.72c0,1.19-.52,2.01-1.57,2.46-.35,.14-.72,.21-1.1,.21h-7.53c-1.19,0-2.01-.52-2.46-1.57-.14-.38-.21-.75-.21-1.1v-35.17c0-1.19,.52-2,1.57-2.46,.38-.14,.75-.21,1.1-.21Z"/><path class="cls-1" d="M477.66,385.73v-14.86c0-4.71,2.09-8.3,6.28-10.78,2.96-1.71,6.4-2.56,10.31-2.56,5.09,0,9.23,1.24,12.4,3.72,2.79,2.23,4.2,5.08,4.24,8.53v1.26c0,1.19-.56,2.01-1.67,2.46-.35,.14-.7,.21-1.05,.21h-7.48c-1.19,0-2.01-.52-2.46-1.57-.14-.38-.21-.75-.21-1.1v-2.3c0-1.6-.77-2.69-2.3-3.25-.49-.17-.98-.26-1.47-.26-1.64,0-2.77,.63-3.4,1.88-.25,.52-.37,1.06-.37,1.62v19.15c0,1.6,.77,2.69,2.3,3.25,.49,.17,.98,.26,1.47,.26,1.64,0,2.77-.63,3.4-1.88,.24-.52,.37-1.06,.37-1.62v-2.3c0-1.19,.52-2,1.57-2.46,.35-.14,.72-.21,1.1-.21h7.48c1.22,0,2.06,.54,2.51,1.62,.14,.35,.21,.7,.21,1.05v1.26c0,4.33-2.13,7.62-6.38,9.89-2.97,1.57-6.38,2.35-10.26,2.35-4.95,0-9.02-1.31-12.19-3.92-2.9-2.44-4.36-5.58-4.4-9.42Z"/><path class="cls-1" d="M549.45,397.14c-.17,.84-.7,1.31-1.57,1.41h-8.06c-1.5,0-2.77-.7-3.82-2.09-.07-.07-.21-.26-.42-.58l-6.44-11.15h-1.83v11.15c0,1.19-.52,2.01-1.57,2.46-.35,.14-.72,.21-1.1,.21h-7.53c-1.19,0-2.01-.52-2.46-1.57-.14-.38-.21-.75-.21-1.1v-35.17c0-1.19,.52-2,1.57-2.46,.38-.14,.75-.21,1.1-.21h13.97c4.95,0,9.02,1.31,12.19,3.93,2.9,2.44,4.36,5.58,4.4,9.42,0,4.68-2.06,8.23-6.17,10.68-.25,.14-.49,.28-.73,.42l8.22,13.4c.31,.42,.47,.84,.47,1.26Zm-22.13-20.15h3.77c1.71,0,2.84-.66,3.4-1.99,.21-.45,.31-.94,.31-1.47v-4.29c0-1.64-.77-2.74-2.3-3.3-.45-.14-.92-.21-1.41-.21h-3.77v11.25Z"/><path class="cls-1" d="M565.2,383.17v7.69h15.49c1.19,0,2.01,.52,2.46,1.57,.14,.38,.21,.75,.21,1.1v2.36c0,1.19-.52,2.01-1.57,2.46-.35,.14-.72,.21-1.1,.21h-25.69c-1.19,0-2.01-.52-2.46-1.57-.14-.38-.21-.75-.21-1.1v-35.17c0-1.19,.52-2,1.57-2.46,.38-.14,.75-.21,1.1-.21h25.17c1.19,0,2.01,.52,2.46,1.57,.14,.38,.21,.75,.21,1.1v2.36c0,1.19-.52,2.01-1.57,2.46-.38,.14-.75,.21-1.1,.21h-14.97v9.73h12.77c1.19,0,2,.52,2.46,1.57,.14,.38,.21,.75,.21,1.1v2.36c0,1.19-.52,2.01-1.57,2.46-.35,.14-.72,.21-1.1,.21h-12.77Z"/><path class="cls-1" d="M606.91,392.8h-8.01l-.68,3.09c-.38,1.53-1.33,2.41-2.83,2.62-.21,.04-.4,.05-.58,.05h-7.8c-.73,0-1.31-.38-1.73-1.15-.17-.35-.26-.68-.26-.99,0-.24,.02-.42,.05-.52l10.62-35.17c.38-1.53,1.33-2.41,2.83-2.62,.21-.04,.4-.05,.58-.05h7.53c1.68,0,2.79,.8,3.35,2.41,0,.11,.02,.19,.05,.26l10.62,35.17c.07,.21,.1,.38,.1,.52,0,.87-.44,1.52-1.31,1.94-.28,.14-.52,.21-.73,.21h-7.74c-1.67,0-2.79-.77-3.35-2.3-.04-.14-.07-.26-.1-.37l-.63-3.09Zm-1.68-7.69l-2.35-10.62-2.3,10.62h4.66Z"/><path class="cls-1" d="M638.72,365.74v30.14c0,1.19-.56,2.01-1.68,2.46-.35,.14-.7,.21-1.05,.21h-7.48c-1.19,0-2.01-.52-2.46-1.57-.14-.38-.21-.75-.21-1.1v-30.14h-7.22c-1.22,0-2.06-.54-2.51-1.62-.14-.35-.21-.7-.21-1.05v-2.36c0-1.19,.56-2,1.67-2.46,.35-.14,.7-.21,1.05-.21h27.31c1.19,0,2.01,.52,2.46,1.57,.14,.38,.21,.75,.21,1.1v2.36c0,1.19-.52,2.01-1.57,2.46-.38,.14-.75,.21-1.1,.21h-7.22Z"/><path class="cls-1" d="M654.42,358.05h7.53c1.19,0,2.01,.52,2.46,1.57,.14,.38,.21,.75,.21,1.1v35.17c0,1.19-.52,2.01-1.57,2.46-.35,.14-.72,.21-1.1,.21h-7.53c-1.19,0-2.01-.52-2.46-1.57-.14-.38-.21-.75-.21-1.1v-35.17c0-1.19,.52-2,1.57-2.46,.38-.14,.75-.21,1.1-.21Z"/><path class="cls-1" d="M689.32,398.56h-7.48c-1.68,0-2.79-.77-3.35-2.3-.04-.14-.07-.26-.1-.37l-10.62-35.17c-.04-.14-.05-.31-.05-.52,0-.87,.42-1.52,1.26-1.94,.28-.14,.52-.21,.73-.21h7.8c1.67,0,2.79,.8,3.35,2.41,0,.11,.02,.19,.05,.26l4.66,21.4,4.66-21.4c.38-1.46,1.29-2.34,2.72-2.62,.24-.04,.49-.05,.73-.05h7.74c.77,0,1.36,.38,1.78,1.15,.17,.35,.26,.68,.26,.99,0,.17-.04,.35-.1,.52l-10.57,35.17c-.38,1.46-1.29,2.34-2.72,2.62-.24,.04-.49,.05-.73,.05Z"/><path class="cls-1" d="M719.47,383.17v7.69h15.49c1.19,0,2.01,.52,2.46,1.57,.14,.38,.21,.75,.21,1.1v2.36c0,1.19-.52,2.01-1.57,2.46-.35,.14-.72,.21-1.1,.21h-25.69c-1.19,0-2.01-.52-2.46-1.57-.14-.38-.21-.75-.21-1.1v-35.17c0-1.19,.52-2,1.57-2.46,.38-.14,.75-.21,1.1-.21h25.17c1.19,0,2.01,.52,2.46,1.57,.14,.38,.21,.75,.21,1.1v2.36c0,1.19-.52,2.01-1.57,2.46-.38,.14-.75,.21-1.1,.21h-14.97v9.73h12.77c1.19,0,2,.52,2.46,1.57,.14,.38,.21,.75,.21,1.1v2.36c0,1.19-.52,2.01-1.57,2.46-.35,.14-.72,.21-1.1,.21h-12.77Z"/><path class="cls-1" d="M760.49,388.3c0-1.53-1.4-3.09-4.19-4.66-.7-.42-1.87-1.05-3.51-1.88-4.19-2.09-7.06-3.87-8.63-5.34-2.3-2.16-3.47-4.59-3.51-7.27,0-3.63,1.81-6.56,5.44-8.79,3.04-1.88,6.52-2.83,10.47-2.83,4.95,0,8.95,1.19,11.98,3.56,2.58,2.02,3.89,4.57,3.93,7.64v.16c0,1.19-.52,2.01-1.57,2.46-.38,.14-.75,.21-1.1,.21h-7.53c-1.19,0-2.01-.52-2.46-1.57-.14-.38-.21-.75-.21-1.1v-1.26c0-1.19-.68-1.95-2.04-2.3-.35-.07-.68-.1-.99-.1-1.19,0-2.08,.49-2.67,1.47-.24,.42-.37,.84-.37,1.26,0,1.36,1.32,2.77,3.98,4.24,.66,.38,1.74,.96,3.24,1.73,4.26,2.09,7.22,3.91,8.9,5.44,2.41,2.27,3.63,4.85,3.66,7.74,0,3.8-1.9,6.85-5.7,9.16-3.14,1.88-6.79,2.83-10.94,2.83-5.13,0-9.28-1.26-12.45-3.77-2.79-2.23-4.21-5.06-4.24-8.48v-.16c0-1.19,.52-2.01,1.57-2.46,.38-.17,.77-.26,1.15-.26h7.48c1.19,0,2.01,.56,2.46,1.67,.14,.35,.21,.7,.21,1.05v1.2c0,1.68,.8,2.77,2.41,3.3,.49,.14,.96,.21,1.41,.21,1.57,0,2.7-.54,3.4-1.62,.28-.49,.42-.98,.42-1.47Z"/></g><g id="Logo"><rect class="cls-1" x="379.3" y="31.94" width="39.25" height="84.22"/><rect class="cls-1" x="379.3" y="162.26" width="39.25" height="69.29"/><path class="cls-1" d="M586.71,92.05c2.85,6.6,8.03,9.9,15.51,9.9h47.18c2.19,0,4.4-.44,6.6-1.32,7.04-2.86,10.56-8.03,10.56-15.51v-7.92c-.22-21.77-9.13-39.7-26.72-53.78-20.01-15.62-46.08-23.42-78.19-23.42-24.63,0-46.3,5.39-64.99,16.17-4.01,2.37-7.61,4.97-10.97,7.69,.26,1.32,.41,2.6,.41,3.85V238.24c19.82,15.79,45,23.71,75.55,23.71,24.41,0,45.97-4.95,64.67-14.85,26.83-14.3,40.25-35.08,40.25-62.35v-7.92c0-2.2-.45-4.4-1.32-6.6-2.86-6.82-8.14-10.23-15.84-10.23h-47.18c-2.42,0-4.73,.44-6.93,1.32-6.6,2.86-9.9,8.03-9.9,15.51v14.52c0,3.52-.77,6.93-2.31,10.23-3.96,7.92-11.11,11.88-21.44,11.88-3.08,0-6.16-.55-9.24-1.65-9.68-3.52-14.52-10.34-14.52-20.45V70.6c0-3.52,.77-6.93,2.31-10.23,3.96-7.92,11.1-11.88,21.44-11.88,3.08,0,6.15,.55,9.24,1.65,9.68,3.52,14.52,10.34,14.52,20.45v14.52c0,2.2,.44,4.51,1.32,6.93Z"/><path class="cls-1" d="M311.78,238.49V27.7c0-2.93,.57-5.39,1.51-7.57h-47.56c-2.21,0-4.53,.44-6.95,1.32-6.62,2.87-9.93,8.06-9.93,15.56V208.86c0,3.53-.66,6.84-1.99,9.93-3.97,8.17-11.15,12.25-21.52,12.25-3.1,0-6.18-.55-9.27-1.66-9.72-3.53-14.57-10.37-14.57-20.53v-12.58c0-2.21-.45-4.52-1.32-6.95-2.87-6.62-8.06-9.93-15.56-9.93h-47.68c-2.43,0-4.75,.44-6.95,1.32-6.62,2.87-9.93,8.06-9.93,15.56v5.96c.22,21.85,9.05,39.73,26.49,53.64,20.08,15.89,46.35,23.84,78.8,23.84,24.72,0,46.46-5.41,65.23-16.22,8.99-5.32,16.41-11.47,22.31-18.43-.73-2.3-1.09-4.49-1.09-6.57Z"/></g></g></svg>